<svg width="48" height="48" viewBox="0 0 48 48" fill="none" xmlns="http://www.w3.org/2000/svg">
<g clip-path="url(#clip0_84_705)">
<path d="M43.2701 8.49968C43.0114 5.16071 40.2138 2.52246 36.8097 2.52246H6.48206C2.90784 2.52246 0 5.4303 0 9.00452V38.9956C0 42.5698 2.90784 45.4776 6.48206 45.4776H41.518C45.0923 45.4776 48.0001 42.5698 48.0001 38.9956V14.7391C48 11.7721 45.9955 9.26617 43.2701 8.49968ZM6.48206 5.55058H36.8098C38.4576 5.55058 39.8387 6.71082 40.1813 8.25715H6.48206C5.213 8.25715 4.02891 8.62516 3.02812 9.25803V9.00452C3.02812 7.10003 4.57757 5.55058 6.48206 5.55058ZM41.5179 42.4495H6.48206C4.57757 42.4495 3.02812 40.9001 3.02812 38.9956V14.7391C3.02812 12.8346 4.57757 11.2852 6.48206 11.2852H41.518C43.4225 11.2852 44.972 12.8346 44.972 14.7391V20.023H35.3174C31.4916 20.023 28.379 23.1356 28.379 26.9614C28.379 30.7873 31.4917 33.8999 35.3174 33.8999H44.9719V38.9956C44.9719 40.9001 43.4224 42.4495 41.5179 42.4495ZM44.9719 30.8718H35.3174C33.1613 30.8718 31.4072 29.1177 31.4072 26.9614C31.4072 24.8052 33.1613 23.0511 35.3174 23.0511H44.9719V30.8718Z" fill="#2E9ADB"/>
<path d="M35.8793 28.6526C36.7499 28.6526 37.4556 27.9469 37.4556 27.0763C37.4556 26.2057 36.7499 25.5 35.8793 25.5C35.0087 25.5 34.303 26.2057 34.303 27.0763C34.303 27.9469 35.0087 28.6526 35.8793 28.6526Z" fill="#2E9ADB"/>
</g>
<defs>
<clipPath id="clip0_84_705">
<rect width="48" height="48" fill="white"/>
</clipPath>
</defs>
</svg>
