<svg width="42" height="48" viewBox="0 0 42 48" fill="none" xmlns="http://www.w3.org/2000/svg">
<path d="M40.094 7.77243L21.719 0.143332C21.2587 -0.0477305 20.7412 -0.0478242 20.281 0.143332L1.90603 7.77243C1.20619 8.06305 0.75 8.7463 0.75 9.50408V18.7783C0.75 31.5483 8.46834 43.0352 20.2914 47.861C20.7456 48.0463 21.2543 48.0463 21.7086 47.861C33.5315 43.0353 41.25 31.5484 41.25 18.7783V9.50408C41.25 8.7463 40.7939 8.06305 40.094 7.77243ZM37.5 18.7783C37.5 29.6341 31.125 39.6276 21 44.0884C11.1456 39.7467 4.5 29.9283 4.5 18.7783V10.7558L21 3.90514L37.5 10.7558V18.7783ZM18.9276 25.0984L26.9867 17.0393C27.7189 16.3071 28.906 16.3071 29.6383 17.0393C30.3706 17.7716 30.3705 18.9588 29.6382 19.691L20.2534 29.0758C19.521 29.8082 18.3338 29.8079 17.6017 29.0758L12.3617 23.8357C11.6294 23.1035 11.6294 21.9163 12.3617 21.1841C13.094 20.4519 14.2811 20.4518 15.0133 21.1841L18.9276 25.0984Z" fill="#2E9ADB"/>
</svg>
