<svg width="40" height="48" viewBox="0 0 40 48" fill="none" xmlns="http://www.w3.org/2000/svg">
<path d="M28.499 31.3817C27.455 31.0338 26.5446 30.7306 25.9062 30.5178V28.3499C28.6884 26.7546 30.771 24.0729 31.5715 20.8876H33.5374C34.7188 20.8876 35.8284 20.4276 36.6619 19.593C37.4965 18.7588 37.9561 17.6492 37.9561 16.4685V13.4561C37.9561 12.2758 37.4965 11.1661 36.6626 10.3326C35.8284 9.49731 34.7184 9.03735 33.5374 9.03735H31.9312V8.93591C31.9312 4.00854 27.9226 0 22.9952 0H16.967C12.04 0 8.03113 4.00854 8.03113 8.93591V9.03735H6.42493C5.2439 9.03735 4.13391 9.49731 3.30078 10.3319C2.46582 11.1665 2.00623 12.2758 2.00623 13.4564V22.4938C2.00623 26.5913 5.33984 29.9249 9.43774 29.9249C10.2141 29.9249 10.844 29.2954 10.844 28.5187C10.844 27.7423 10.2141 27.1124 9.43774 27.1124C6.89075 27.1124 4.81873 25.0408 4.81873 22.4938V20.5865C5.3241 20.7836 5.86609 20.8876 6.42493 20.8876H8.38635C8.90417 22.9658 9.97717 24.8719 11.531 26.4254C12.2946 27.189 13.1438 27.8361 14.0564 28.3586V30.5178C13.4181 30.7306 12.5073 31.0342 11.4633 31.3821C4.90588 33.568 0.5 39.6808 0.5 46.5938C0.5 47.3705 1.12952 48 1.90625 48H38.0564C38.8328 48 39.4626 47.3698 39.4626 46.593C39.4626 39.6808 35.0568 33.568 28.499 31.3817ZM34.6733 12.3208C34.9766 12.624 35.1436 13.0272 35.1436 13.4561V16.4685C35.1436 16.8977 34.9766 17.3009 34.6726 17.6049C34.3698 17.9081 33.9666 18.0751 33.5374 18.0751H31.9312V11.8499H33.5374C33.9666 11.8499 34.3698 12.0168 34.6733 12.3208ZM16.9674 2.8125H22.9952C26.3717 2.8125 29.1187 5.55945 29.1187 8.93591V12.0498H23.1783C20.1714 12.0498 17.5618 10.0144 16.829 7.099C16.6766 6.47278 16.1145 6.0249 15.4626 6.0249C15.244 6.0249 15.0291 6.07581 14.8335 6.17322L10.8949 8.1427C11.2849 5.13977 13.8594 2.8125 16.9674 2.8125ZM8.03113 18.0751H6.42493C5.99573 18.0751 5.59253 17.9081 5.28931 17.6041C4.98572 17.3009 4.81873 16.8977 4.81873 16.4689V13.4564C4.81873 13.0276 4.98572 12.624 5.29004 12.3201C5.59253 12.0172 5.99573 11.8502 6.42493 11.8502H8.03113V18.0751ZM10.8436 17.9766V11.313L14.6676 9.401C16.1672 12.6855 19.4606 14.8623 23.1783 14.8623H29.1187V17.9751C29.1187 23.0134 25.0197 27.1124 19.9799 27.1124C17.5398 27.1124 15.2455 26.1621 13.5195 24.4365C11.7939 22.7109 10.8436 20.417 10.8436 17.9766ZM19.9813 29.9249C21.0576 29.9249 22.101 29.781 23.0938 29.5129V31.5015V31.5066V31.5311C23.0938 33.2476 21.6974 34.6436 19.9813 34.6436C18.2649 34.6436 16.8689 33.2476 16.8689 31.5311V31.5066C16.8689 31.5048 16.8689 31.5033 16.8689 31.5015V29.5173C17.8712 29.7858 18.9153 29.9249 19.9813 29.9249ZM3.38647 45.1875C3.92847 40.0781 7.39465 35.703 12.3524 34.0499C13.1068 33.7987 13.7913 33.5706 14.3541 33.3831C15.1338 35.7455 17.3607 37.4561 19.9813 37.4561C22.6016 37.4561 24.8289 35.7455 25.6082 33.3831C26.171 33.5706 26.8558 33.7987 27.6099 34.0499C32.5676 35.7026 36.0338 40.0778 36.5758 45.1875H3.38647Z" fill="#2E9ADB"/>
</svg>
