<svg width="53" height="65" viewBox="0 0 53 65" fill="none" xmlns="http://www.w3.org/2000/svg">
<path d="M38.0091 42.4961C36.5953 42.025 35.3624 41.6143 34.498 41.3262V38.3904C38.2655 36.2302 41.0857 32.5987 42.1698 28.2853H44.8318C46.4316 28.2853 47.9342 27.6624 49.0629 26.5322C50.1931 25.4025 50.8155 23.8999 50.8155 22.3011V18.2217C50.8155 16.6234 50.1931 15.1208 49.0639 13.9921C47.9342 12.8609 46.4311 12.2381 44.8318 12.2381H42.6568V12.1007C42.6568 5.42824 37.2285 0 30.5561 0H22.3929C15.7209 0 10.2922 5.42824 10.2922 12.1007V12.2381H8.11709C6.51778 12.2381 5.01467 12.8609 3.88647 13.9911C2.7558 15.1213 2.13343 16.6234 2.13343 18.2222V30.4603C2.13343 36.0091 6.64771 40.5233 12.1969 40.5233C13.2483 40.5233 14.1012 39.6709 14.1012 38.619C14.1012 37.5677 13.2483 36.7147 12.1969 36.7147C8.74789 36.7147 5.94202 33.9094 5.94202 30.4603V27.8776C6.62638 28.1444 7.36033 28.2853 8.11709 28.2853H10.7732C11.4744 31.0995 12.9274 33.6808 15.0316 35.7844C16.0655 36.8184 17.2156 37.6947 18.4514 38.4023V41.3262C17.587 41.6143 16.3537 42.0255 14.9398 42.4966C6.06005 45.4567 0.09375 53.7344 0.09375 63.0957C0.09375 64.1475 0.94622 65 1.99805 65H50.9514C52.0027 65 52.8557 64.1465 52.8557 63.0947C52.8557 53.7344 46.8894 45.4567 38.0091 42.4961ZM46.3701 16.6844C46.7808 17.095 47.0069 17.641 47.0069 18.2217V22.3011C47.0069 22.8823 46.7808 23.4283 46.3692 23.8399C45.959 24.2505 45.413 24.4767 44.8318 24.4767H42.6568V16.0467H44.8318C45.413 16.0467 45.959 16.2728 46.3701 16.6844ZM22.3934 3.80859H30.5561C35.1283 3.80859 38.8482 7.52842 38.8482 12.1007V16.3174H30.804C26.7321 16.3174 23.1982 13.5612 22.2059 9.61323C21.9996 8.76522 21.2384 8.15872 20.3557 8.15872C20.0596 8.15872 19.7685 8.22765 19.5037 8.35957L14.1702 11.0266C14.6983 6.96011 18.1846 3.80859 22.3934 3.80859ZM10.2922 24.4767H8.11709C7.53588 24.4767 6.98988 24.2505 6.57927 23.8389C6.16816 23.4283 5.94202 22.8823 5.94202 22.3016V18.2222C5.94202 17.6415 6.16816 17.095 6.58026 16.6834C6.98988 16.2733 7.53588 16.0472 8.11709 16.0472H10.2922V24.4767ZM14.1007 24.3433V15.3197L19.279 12.7305C21.3098 17.1783 25.7695 20.126 30.804 20.126H38.8482V24.3413C38.8482 31.164 33.2974 36.7147 26.4727 36.7147C23.1685 36.7147 20.0616 35.4279 17.7244 33.0911C15.3876 30.7544 14.1007 27.648 14.1007 24.3433ZM26.4747 40.5233C27.9322 40.5233 29.345 40.3284 30.6895 39.9654V42.6582V42.6652V42.6984C30.6895 45.0227 28.7985 46.9131 26.4747 46.9131C24.1504 46.9131 22.26 45.0227 22.26 42.6984V42.6652C22.26 42.6627 22.26 42.6607 22.26 42.6582V39.9714C23.6173 40.3349 25.0311 40.5233 26.4747 40.5233ZM4.00252 61.1914C4.73647 54.2725 9.43026 48.3478 16.1439 46.1093C17.1655 45.7691 18.0923 45.4601 18.8545 45.2062C19.9103 48.4053 22.926 50.7217 26.4747 50.7217C30.0229 50.7217 33.0391 48.4053 34.0944 45.2062C34.8566 45.4601 35.7839 45.7691 36.805 46.1093C43.5187 48.3473 48.2125 54.272 48.9464 61.1914H4.00252Z" fill="#2E9ADB"/>
</svg>
