<svg width="55" height="65" viewBox="0 0 55 65" fill="none" xmlns="http://www.w3.org/2000/svg">
<path d="M53.3564 10.5252L28.4736 0.194095C27.8503 -0.064635 27.1496 -0.064762 26.5264 0.194095L1.64358 10.5252C0.695879 10.9187 0.078125 11.8439 0.078125 12.8701V25.4289C0.078125 42.7216 10.53 58.2768 26.5405 64.8117C27.1554 65.0627 27.8444 65.0627 28.4595 64.8117C44.4697 58.2769 54.9219 42.7217 54.9219 25.4289V12.8701C54.9219 11.8439 54.3042 10.9187 53.3564 10.5252ZM49.8438 25.4289C49.8438 40.1295 41.2109 53.6623 27.5 59.703C14.1554 53.8237 5.15625 40.5279 5.15625 25.4289V14.5652L27.5 5.28822L49.8438 14.5652V25.4289ZM24.6936 33.9874L35.607 23.0741C36.5985 22.0826 38.2061 22.0825 39.1977 23.0741C40.1893 24.0657 40.1892 25.6733 39.1976 26.6648L26.4889 39.3735C25.4972 40.3652 23.8896 40.3649 22.8982 39.3735L15.8023 32.2776C14.8107 31.2859 14.8107 29.6783 15.8023 28.6868C16.7939 27.6953 18.4015 27.6952 19.393 28.6868L24.6936 33.9874Z" fill="#2E9ADB"/>
</svg>
