<svg width="64" height="65" viewBox="0 0 64 65" fill="none" xmlns="http://www.w3.org/2000/svg">
<path d="M63.2301 21.891L51.7999 2.5526C50.974 1.15452 49.6047 0.319824 48.1372 0.319824H15.8619C14.3944 0.319824 13.0251 1.15452 12.1995 2.55217L0.76774 21.8929C-0.39326 23.862 -0.22151 26.4971 1.17461 28.2388L28.7404 62.6721C30.4944 64.8715 33.5092 64.8656 35.2561 62.6751L62.8235 28.2399C64.168 26.5626 64.4364 23.9367 63.2301 21.891V21.891ZM17.4089 27.2099L27.1767 54.3434L5.45486 27.2099H17.4089ZM34.703 4.64467L42.3492 22.8849H21.6496L29.2959 4.64467H34.703ZM42.5299 27.2099L31.9995 56.4611L21.4692 27.2097H42.5299V27.2099ZM46.5901 27.2099H58.5441L36.8222 54.3434L46.5901 27.2099ZM48.7011 4.98821L59.2792 22.885H46.5146L38.8684 4.64482H48.1374C48.3632 4.64467 48.5739 4.77298 48.7011 4.98821V4.98821ZM15.2982 4.98778C15.4251 4.77298 15.6357 4.64482 15.8617 4.64482H25.1307L17.4845 22.885H4.71974L15.2982 4.98778Z" fill="#2E9ADB"/>
</svg>
