<svg width="42" height="48" viewBox="0 0 42 48" fill="none" xmlns="http://www.w3.org/2000/svg">
<path d="M18.1875 39.5625H12.5625C11.7859 39.5625 11.1562 40.1921 11.1562 40.9688C11.1562 41.7454 11.7859 42.375 12.5625 42.375H18.1875C18.9641 42.375 19.5938 41.7454 19.5938 40.9688C19.5938 40.1921 18.9641 39.5625 18.1875 39.5625Z" fill="#2E9ADB"/>
<path d="M29.9062 11.4223V4.21875C29.9062 1.89253 28.0137 0 25.6875 0H5.0625C2.73628 0 0.84375 1.89253 0.84375 4.21875V43.7812C0.84375 46.1075 2.73628 48 5.0625 48H25.6875C28.0137 48 29.9062 46.1075 29.9062 43.7812V36.5777C36.2256 35.8759 41.1562 30.5033 41.1562 24C41.1562 17.4967 36.2256 12.1241 29.9062 11.4223ZM19.0489 2.8125L18.1114 5.625H12.6385L11.701 2.8125H19.0489ZM27.0938 43.7812C27.0938 44.5567 26.4629 45.1875 25.6875 45.1875H5.0625C4.28709 45.1875 3.65625 44.5567 3.65625 43.7812V4.21875C3.65625 3.44334 4.28709 2.8125 5.0625 2.8125H8.73638L10.2908 7.476C10.4824 8.05022 11.0197 8.4375 11.625 8.4375H19.125C19.7302 8.4375 20.2676 8.05022 20.4591 7.476L22.0136 2.8125H25.6875C26.4629 2.8125 27.0938 3.44334 27.0938 4.21875V11.4223C20.7744 12.1241 15.8438 17.4967 15.8438 24C15.8438 30.5033 20.7744 35.8759 27.0938 36.5777V43.7812ZM28.5 33.8438C23.0722 33.8438 18.6562 29.4278 18.6562 24C18.6562 18.5722 23.0722 14.1562 28.5 14.1562C33.9278 14.1562 38.3438 18.5722 38.3438 24C38.3438 29.4278 33.9278 33.8438 28.5 33.8438Z" fill="#2E9ADB"/>
<path d="M33.8769 22.7744L26.3769 18.5557C25.4395 18.0284 24.2812 18.7059 24.2812 19.7813V28.2188C24.2812 29.2943 25.4395 29.9718 26.3769 29.4445L33.8769 25.2258C34.8326 24.6881 34.8326 23.3121 33.8769 22.7744ZM27.0937 25.8143V22.1858L30.3191 24.0001L27.0937 25.8143Z" fill="#2E9ADB"/>
</svg>
