<svg width="65" height="65" viewBox="0 0 65 65" fill="none" xmlns="http://www.w3.org/2000/svg">
<g clip-path="url(#clip0_84_324)">
<path d="M61.4674 21.9023H3.5326C1.58476 21.9023 0 23.4871 0 25.4349V57.2284C0 59.1763 1.58476 60.761 3.5326 60.761H61.4674C63.4152 60.761 65 59.1763 65 57.2284V25.4349C65 23.4871 63.4152 21.9023 61.4674 21.9023ZM60.7609 56.5218H4.23909V26.1414H60.7608V56.5218H60.7609Z" fill="#2E9ADB"/>
<path d="M9.8913 21.9023C8.72054 21.9023 7.77169 22.8512 7.77169 24.022V26.1416C7.77169 27.7263 6.53034 28.9677 4.94559 28.9677H2.11961C0.948848 28.9675 0 29.9164 0 31.0871C0 32.2579 0.948848 33.2068 2.11961 33.2068H4.94571C8.84152 33.2068 12.0109 30.0372 12.0109 26.1416V24.022C12.0109 22.8512 11.0621 21.9023 9.8913 21.9023Z" fill="#2E9ADB"/>
<path d="M62.8804 28.9672H60.7608C59.176 28.9672 57.9347 27.7258 57.9347 26.1411V24.0215C57.9347 22.8507 56.9858 21.9019 55.815 21.9019C54.6443 21.9019 53.6954 22.8507 53.6954 24.0215V26.1411C53.6954 30.0369 56.8649 33.2063 60.7606 33.2063H62.8802C64.051 33.2063 64.9999 32.2574 64.9999 31.0867C64.9999 29.9159 64.0511 28.9672 62.8804 28.9672Z" fill="#2E9ADB"/>
<path d="M4.94571 49.4565H2.11961C0.948848 49.4565 0 50.4054 0 51.5762C0 52.7469 0.948848 53.6958 2.11961 53.6958H4.94571C6.53047 53.6958 7.77182 54.9371 7.77182 56.5219V58.6415C7.77182 59.8122 8.72066 60.7611 9.89143 60.7611C11.0622 60.7611 12.011 59.8122 12.011 58.6415V56.5219C12.0109 52.6261 8.8414 49.4565 4.94571 49.4565Z" fill="#2E9ADB"/>
<path d="M62.8804 49.4565H60.0543C56.1585 49.4565 52.9891 52.6261 52.9891 56.5217V58.6413C52.9891 59.8121 53.938 60.761 55.1087 60.761C56.2795 60.761 57.2284 59.8121 57.2284 58.6413V56.5217C57.2284 54.937 58.4697 53.6956 60.0545 53.6956H62.8806C64.0513 53.6956 65.0002 52.7468 65.0002 51.576C65.0002 50.4053 64.0512 49.4565 62.8804 49.4565Z" fill="#2E9ADB"/>
<path d="M57.2283 12.7173H7.77171C6.60095 12.7173 5.6521 13.6661 5.6521 14.8369C5.6521 16.0077 6.60095 16.9565 7.77171 16.9565H57.2282C58.399 16.9565 59.3478 16.0077 59.3478 14.8369C59.3478 13.6661 58.399 12.7173 57.2283 12.7173Z" fill="#2E9ADB"/>
<path d="M50.8696 4.23926H14.1304C12.9596 4.23926 12.0107 5.18811 12.0107 6.35887C12.0107 7.52963 12.9596 8.47848 14.1304 8.47848H50.8694C52.0402 8.47848 52.9891 7.52963 52.9891 6.35887C52.9891 5.18811 52.0402 4.23926 50.8696 4.23926Z" fill="#2E9ADB"/>
<path d="M32.5 29.6035C26.0721 29.6035 20.8424 34.8325 20.8424 41.2611C20.8424 47.689 26.0721 52.9187 32.5 52.9187C38.9279 52.9187 44.1576 47.689 44.1576 41.2611C44.1576 34.8331 38.9279 29.6035 32.5 29.6035ZM32.5 48.6795C28.4092 48.6795 25.0815 45.3518 25.0815 41.261C25.0815 37.1702 28.4092 33.8418 32.5 33.8418C36.5908 33.8418 39.9185 37.1703 39.9185 41.261C39.9185 45.3518 36.5908 48.6795 32.5 48.6795Z" fill="#2E9ADB"/>
</g>
<defs>
<clipPath id="clip0_84_324">
<rect width="65" height="65" fill="white"/>
</clipPath>
</defs>
</svg>
