<svg width="48" height="48" viewBox="0 0 48 48" fill="none" xmlns="http://www.w3.org/2000/svg">
<path d="M47.4226 16.0313L38.8499 1.82964C38.2305 0.802921 37.2036 0.189941 36.1029 0.189941H11.8964C10.7958 0.189941 9.76884 0.802921 9.14962 1.82932L0.575805 16.0327C-0.294945 17.4787 -0.166133 19.4139 0.880961 20.6929L21.5553 45.9799C22.8708 47.5951 25.1319 47.5908 26.4421 45.9821L47.1176 20.6938C48.126 19.462 48.3273 17.5336 47.4226 16.0313V16.0313ZM13.0566 19.9373L20.3826 39.8635L4.09115 19.9373H13.0566ZM26.0272 3.366L31.7619 16.7612H16.2372L21.9719 3.366H26.0272ZM31.8974 19.9373L23.9996 41.4187L16.1019 19.9372H31.8974V19.9373ZM34.9426 19.9373H43.9081L27.6167 39.8635L34.9426 19.9373ZM36.5258 3.61829L44.4594 16.7613H34.886L29.1513 3.36611H36.103C36.2724 3.366 36.4304 3.46023 36.5258 3.61829V3.61829ZM11.4737 3.61797C11.5688 3.46023 11.7268 3.36611 11.8963 3.36611H18.8481L13.1134 16.7613H3.5398L11.4737 3.61797Z" fill="#2E9ADB"/>
</svg>
