<svg width="48" height="42" viewBox="0 0 48 42" fill="none" xmlns="http://www.w3.org/2000/svg">
<path d="M47.4226 14.2179L38.8499 1.64194C38.2305 0.732754 37.2036 0.189941 36.1029 0.189941H11.8964C10.7958 0.189941 9.76884 0.732754 9.14962 1.64166L0.575805 14.2192C-0.294945 15.4997 -0.166133 17.2133 0.880961 18.3459L21.5553 40.7383C22.8708 42.1687 25.1319 42.1648 26.4421 40.7403L47.1176 18.3467C48.126 17.2559 48.3273 15.5483 47.4226 14.2179V14.2179ZM13.0566 17.6768L20.3826 35.3221L4.09115 17.6768H13.0566ZM26.0272 3.00244L31.7619 14.8643H16.2372L21.9719 3.00244H26.0272ZM31.8974 17.6768L23.9996 36.6993L16.1019 17.6768H31.8974V17.6768ZM34.9426 17.6768H43.9081L27.6167 35.3221L34.9426 17.6768ZM36.5258 3.22585L44.4594 14.8643H34.886L29.1513 3.00254H36.103C36.2724 3.00244 36.4304 3.08588 36.5258 3.22585V3.22585ZM11.4737 3.22557C11.5688 3.08588 11.7268 3.00254 11.8963 3.00254H18.8481L13.1134 14.8643H3.5398L11.4737 3.22557Z" fill="#2E9ADB"/>
</svg>
