<svg width="48" height="48" viewBox="0 0 48 48" fill="none" xmlns="http://www.w3.org/2000/svg">
<g clip-path="url(#clip0_84_673)">
<path d="M45.3913 16.1738H2.60869C1.17028 16.1738 0 17.3441 0 18.7825V42.2608C0 43.6992 1.17028 44.8695 2.60869 44.8695H45.3913C46.8297 44.8695 48 43.6992 48 42.2608V18.7825C48 17.3441 46.8297 16.1738 45.3913 16.1738ZM44.8696 41.739H3.13041V19.3042H44.8695V41.739H44.8696Z" fill="#2E9ADB"/>
<path d="M7.30434 16.1738C6.43978 16.1738 5.73909 16.8745 5.73909 17.7391V19.3043C5.73909 20.4746 4.82241 21.3913 3.65213 21.3913H1.56525C0.700687 21.3912 0 22.0919 0 22.9565C0 23.821 0.700687 24.5217 1.56525 24.5217H3.65222C6.52913 24.5217 8.86959 22.1811 8.86959 19.3043V17.7391C8.86959 16.8745 8.16891 16.1738 7.30434 16.1738Z" fill="#2E9ADB"/>
<path d="M46.4348 21.3913H44.8696C43.6993 21.3913 42.7826 20.4746 42.7826 19.3043V17.7391C42.7826 16.8745 42.0819 16.1738 41.2174 16.1738C40.3528 16.1738 39.6521 16.8745 39.6521 17.7391V19.3043C39.6521 22.1812 41.9927 24.5217 44.8695 24.5217H46.4347C47.2993 24.5217 48 23.821 48 22.9565C48 22.0919 47.2994 21.3913 46.4348 21.3913Z" fill="#2E9ADB"/>
<path d="M3.65222 36.5215H1.56525C0.700687 36.5215 0 37.2222 0 38.0867C0 38.9513 0.700687 39.652 1.56525 39.652H3.65222C4.8225 39.652 5.73919 40.5687 5.73919 41.739V43.3042C5.73919 44.1688 6.43988 44.8695 7.30444 44.8695C8.169 44.8695 8.86969 44.1688 8.86969 43.3042V41.739C8.86959 38.862 6.52903 36.5215 3.65222 36.5215Z" fill="#2E9ADB"/>
<path d="M46.4347 36.5215H44.3477C41.4708 36.5215 39.1304 38.862 39.1304 41.7389V43.3041C39.1304 44.1687 39.8311 44.8694 40.6956 44.8694C41.5602 44.8694 42.2609 44.1687 42.2609 43.3041V41.7389C42.2609 40.5686 43.1776 39.6519 44.3478 39.6519H46.4348C47.2994 39.6519 48.0001 38.9512 48.0001 38.0866C48.0001 37.2221 47.2993 36.5215 46.4347 36.5215Z" fill="#2E9ADB"/>
<path d="M42.2609 9.39111H5.73908C4.87452 9.39111 4.17383 10.0918 4.17383 10.9564C4.17383 11.8209 4.87452 12.5216 5.73908 12.5216H42.2608C43.1254 12.5216 43.826 11.8209 43.826 10.9564C43.826 10.0918 43.1254 9.39111 42.2609 9.39111Z" fill="#2E9ADB"/>
<path d="M37.5651 3.13037H10.4346C9.57007 3.13037 8.86938 3.83106 8.86938 4.69562C8.86938 5.56018 9.57007 6.26087 10.4346 6.26087H37.565C38.4296 6.26087 39.1303 5.56018 39.1303 4.69562C39.1303 3.83106 38.4296 3.13037 37.5651 3.13037Z" fill="#2E9ADB"/>
<path d="M24.0001 21.8608C19.2533 21.8608 15.3914 25.7222 15.3914 30.4695C15.3914 35.2163 19.2533 39.0782 24.0001 39.0782C28.7468 39.0782 32.6087 35.2163 32.6087 30.4695C32.6087 25.7227 28.7468 21.8608 24.0001 21.8608ZM24.0001 35.9477C20.9791 35.9477 18.5218 33.4903 18.5218 30.4694C18.5218 27.4485 20.9791 24.9907 24.0001 24.9907C27.021 24.9907 29.4783 27.4486 29.4783 30.4694C29.4783 33.4903 27.021 35.9477 24.0001 35.9477Z" fill="#2E9ADB"/>
</g>
<defs>
<clipPath id="clip0_84_673">
<rect width="48" height="48" fill="white"/>
</clipPath>
</defs>
</svg>
