<svg width="65" height="57" viewBox="0 0 65 57" fill="none" xmlns="http://www.w3.org/2000/svg">
<path d="M64.2181 19.3161L52.6092 2.28607C51.7705 1.05488 50.3798 0.319824 48.8894 0.319824H16.1097C14.6193 0.319824 13.2286 1.05488 12.3901 2.28569L0.779736 19.3177C-0.399405 21.0518 -0.224972 23.3724 1.19297 24.9061L29.1894 55.2291C30.9708 57.166 34.0328 57.1608 35.807 55.2317L63.8051 24.9071C65.1706 23.43 65.4432 21.1175 64.2181 19.3161ZM17.6809 24L27.6014 47.8946L5.5401 24H17.6809ZM35.2452 4.12842L43.0109 20.1913H21.9879L29.7536 4.12842H35.2452ZM43.1944 24L32.4995 49.7596L21.8047 23.9999H43.1944V24ZM47.3181 24H59.4589L37.3976 47.8946L47.3181 24ZM49.4621 4.43095L60.2055 20.1914H47.2414L39.4757 4.12854H48.8895C49.1189 4.12842 49.3328 4.24141 49.4621 4.43095ZM15.5373 4.43057C15.6661 4.24141 15.88 4.12854 16.1096 4.12854H25.5234L17.7577 20.1914H4.79349L15.5373 4.43057Z" fill="#2E9ADB"/>
</svg>
