<svg width="65" height="65" viewBox="0 0 65 65" fill="none" xmlns="http://www.w3.org/2000/svg">
<g clip-path="url(#clip0_84_356)">
<path d="M58.5949 11.5097C58.2446 6.98815 54.4561 3.41553 49.8465 3.41553H8.77779C3.9377 3.41553 0 7.35323 0 12.1933V52.8062C0 57.6463 3.9377 61.584 8.77779 61.584H56.2223C61.0624 61.584 65.0001 57.6463 65.0001 52.8062V19.9589C65 15.9411 62.2855 12.5476 58.5949 11.5097ZM8.77779 7.5161H49.8466C52.0781 7.5161 53.9482 9.08726 54.4122 11.1812H8.77779C7.05927 11.1812 5.45581 11.6796 4.10057 12.5366V12.1933C4.10057 9.61431 6.19879 7.5161 8.77779 7.5161ZM56.2222 57.4834H8.77779C6.19879 57.4834 4.10057 55.3852 4.10057 52.8062V19.9589C4.10057 17.3799 6.19879 15.2817 8.77779 15.2817H56.2223C58.8013 15.2817 60.8996 17.3799 60.8996 19.9589V27.1142H47.8256C42.6448 27.1142 38.4299 31.3292 38.4299 36.51C38.4299 41.6908 42.645 45.9058 47.8256 45.9058H60.8994V52.8062C60.8994 55.3852 58.8012 57.4834 56.2222 57.4834ZM60.8994 41.8052H47.8256C44.9059 41.8052 42.5305 39.4298 42.5305 36.51C42.5305 33.5901 44.9059 31.2147 47.8256 31.2147H60.8994V41.8052Z" fill="#2E9ADB"/>
<path d="M48.5867 38.8004C49.7657 38.8004 50.7213 37.8448 50.7213 36.6658C50.7213 35.4869 49.7657 34.5312 48.5867 34.5312C47.4078 34.5312 46.4521 35.4869 46.4521 36.6658C46.4521 37.8448 47.4078 38.8004 48.5867 38.8004Z" fill="#2E9ADB"/>
</g>
<defs>
<clipPath id="clip0_84_356">
<rect width="65" height="65" fill="white"/>
</clipPath>
</defs>
</svg>
