<svg width="48" height="48" viewBox="0 0 48 48" fill="none" xmlns="http://www.w3.org/2000/svg">
<g clip-path="url(#clip0_84_1802)">
<path d="M46.5947 45.1556H46.1473V27.9866C46.1473 27.2105 45.5181 26.5813 44.742 26.5813H36.0693V1.43946C36.0693 0.663368 35.4401 0.0341797 34.664 0.0341797H13.313C12.5369 0.0341797 11.9077 0.663368 11.9077 1.43946V10.646H3.23494C2.45886 10.646 1.82967 11.2752 1.82967 12.0513V45.1557H1.40528C0.629189 45.1557 0 45.7849 0 46.561C0 47.3371 0.629189 47.9663 1.40528 47.9663H46.5947C47.3708 47.9663 48 47.3371 48 46.561C48 45.7849 47.3708 45.1556 46.5947 45.1556ZM43.3367 29.3919V33.0868H36.0693V29.3919H43.3367ZM11.9077 27.9008H4.64022V21.8322H11.9076V27.9008H11.9077ZM4.64022 30.7113H11.9076V36.78H4.64022V30.7113ZM11.9077 13.4564V19.0215H4.64022V13.4564H11.9077ZM4.64022 39.5905H11.9076V45.1556H4.64022V39.5905ZM14.7183 2.84473H33.2588V45.1557H30.2835V37.2738C30.2835 36.4977 29.6543 35.8685 28.8782 35.8685H19.0988C18.3227 35.8685 17.6935 36.4977 17.6935 37.2738V45.1557H14.7183V2.84473ZM20.5041 45.1556V38.679H27.4729V45.1556H20.5041ZM36.0692 45.1556V35.8974H43.3366V45.1556H36.0692Z" fill="#2E9ADB"/>
<path d="M18.9312 8.56153H29.0454C29.8215 8.56153 30.4507 7.93234 30.4507 7.15625C30.4507 6.38017 29.8215 5.75098 29.0454 5.75098H18.9312C18.1551 5.75098 17.5259 6.38017 17.5259 7.15625C17.5259 7.93234 18.1551 8.56153 18.9312 8.56153Z" fill="#2E9ADB"/>
<path d="M18.9312 14.5054H29.0454C29.8215 14.5054 30.4507 13.8762 30.4507 13.1001C30.4507 12.324 29.8215 11.6948 29.0454 11.6948H18.9312C18.1551 11.6948 17.5259 12.324 17.5259 13.1001C17.5259 13.8762 18.1551 14.5054 18.9312 14.5054Z" fill="#2E9ADB"/>
<path d="M18.9312 20.4492H29.0454C29.8215 20.4492 30.4507 19.82 30.4507 19.0439C30.4507 18.2679 29.8215 17.6387 29.0454 17.6387H18.9312C18.1551 17.6387 17.5259 18.2679 17.5259 19.0439C17.5259 19.82 18.1551 20.4492 18.9312 20.4492Z" fill="#2E9ADB"/>
<path d="M18.9312 26.3931H29.0454C29.8215 26.3931 30.4507 25.7639 30.4507 24.9878C30.4507 24.2117 29.8215 23.5825 29.0454 23.5825H18.9312C18.1551 23.5825 17.5259 24.2117 17.5259 24.9878C17.5259 25.7639 18.1551 26.3931 18.9312 26.3931Z" fill="#2E9ADB"/>
<path d="M18.9312 32.3369H29.0454C29.8215 32.3369 30.4507 31.7077 30.4507 30.9316C30.4507 30.1556 29.8215 29.5264 29.0454 29.5264H18.9312C18.1551 29.5264 17.5259 30.1556 17.5259 30.9316C17.5259 31.7077 18.1551 32.3369 18.9312 32.3369Z" fill="#2E9ADB"/>
</g>
<defs>
<clipPath id="clip0_84_1802">
<rect width="48" height="48" fill="white"/>
</clipPath>
</defs>
</svg>
