<svg width="65" height="65" viewBox="0 0 65 65" fill="none" xmlns="http://www.w3.org/2000/svg">
<g clip-path="url(#clip0_84_1621)">
<path d="M63.097 61.1478H62.4911V37.8981C62.4911 36.8472 61.6391 35.9952 60.5881 35.9952H48.8438V1.94888C48.8438 0.897925 47.9918 0.0458984 46.9409 0.0458984H18.028C16.9771 0.0458984 16.1251 0.897925 16.1251 1.94888V14.416H4.38065C3.3297 14.416 2.47768 15.2681 2.47768 16.319V61.148H1.90298C0.852026 61.148 0 62 0 63.0509C0 64.1019 0.852026 64.9539 1.90298 64.9539H63.097C64.148 64.9539 65 64.1019 65 63.0509C65 62 64.148 61.1478 63.097 61.1478V61.1478ZM58.6852 39.8011V44.8047H48.8438V39.8011H58.6852ZM16.1251 37.7819H6.28363V29.564H16.1249V37.7819H16.1251ZM6.28363 41.5879H16.1249V49.8058H6.28363V41.5879ZM16.1251 18.2219V25.7579H6.28363V18.2219H16.1251ZM6.28363 53.6118H16.1249V61.1478H6.28363V53.6118ZM19.931 3.85185H45.0379V61.148H41.0089V50.4745C41.0089 49.4236 40.1569 48.5716 39.1059 48.5716H25.863C24.812 48.5716 23.96 49.4236 23.96 50.4745V61.148H19.931V3.85185ZM27.766 61.1478V52.3774H37.2028V61.1478H27.766ZM48.8437 61.1478V48.6106H58.685V61.1478H48.8437Z" fill="#2E9ADB"/>
<path d="M25.6364 11.5931H39.3327C40.3837 11.5931 41.2357 10.741 41.2357 9.69009C41.2357 8.63914 40.3837 7.78711 39.3327 7.78711H25.6364C24.5854 7.78711 23.7334 8.63914 23.7334 9.69009C23.7334 10.741 24.5854 11.5931 25.6364 11.5931Z" fill="#2E9ADB"/>
<path d="M25.6364 19.6419H39.3327C40.3837 19.6419 41.2357 18.7899 41.2357 17.7389C41.2357 16.688 40.3837 15.8359 39.3327 15.8359H25.6364C24.5854 15.8359 23.7334 16.688 23.7334 17.7389C23.7334 18.7899 24.5854 19.6419 25.6364 19.6419Z" fill="#2E9ADB"/>
<path d="M25.6364 27.6912H39.3327C40.3837 27.6912 41.2357 26.8392 41.2357 25.7882C41.2357 24.7373 40.3837 23.8853 39.3327 23.8853H25.6364C24.5854 23.8853 23.7334 24.7373 23.7334 25.7882C23.7334 26.8392 24.5854 27.6912 25.6364 27.6912Z" fill="#2E9ADB"/>
<path d="M25.6364 35.74H39.3327C40.3837 35.74 41.2357 34.888 41.2357 33.8371C41.2357 32.7861 40.3837 31.9341 39.3327 31.9341H25.6364C24.5854 31.9341 23.7334 32.7861 23.7334 33.8371C23.7334 34.888 24.5854 35.74 25.6364 35.74Z" fill="#2E9ADB"/>
<path d="M25.6364 43.7889H39.3327C40.3837 43.7889 41.2357 42.9368 41.2357 41.8859C41.2357 40.8349 40.3837 39.9829 39.3327 39.9829H25.6364C24.5854 39.9829 23.7334 40.8349 23.7334 41.8859C23.7334 42.9368 24.5854 43.7889 25.6364 43.7889Z" fill="#2E9ADB"/>
</g>
<defs>
<clipPath id="clip0_84_1621">
<rect width="65" height="65" fill="white"/>
</clipPath>
</defs>
</svg>
