<svg width="48" height="48" viewBox="0 0 48 48" fill="none" xmlns="http://www.w3.org/2000/svg">
<path d="M40.9688 24.5354H36.2702C35.6307 24.5354 35.0116 24.636 34.4224 24.8208C33.2601 22.1926 30.8871 20.3867 28.1527 20.3867H19.8473C17.1129 20.3867 14.7399 22.1926 13.5776 24.8208C12.9884 24.636 12.3693 24.5354 11.7298 24.5354H7.03125C3.15422 24.5354 0 28.1636 0 32.6233V41.263C0 43.9388 1.89253 46.1157 4.21875 46.1157H43.7812C46.1075 46.1157 48 43.9388 48 41.263V32.6233C48 28.1636 44.8458 24.5354 40.9688 24.5354ZM12.8161 28.4748V42.8807H4.21875C3.44334 42.8807 2.8125 42.155 2.8125 41.2631V32.6234C2.8125 29.9476 4.70503 27.7707 7.03125 27.7707H11.7298C12.1116 27.7707 12.4812 27.8303 12.8332 27.9402C12.823 28.1172 12.8161 28.2951 12.8161 28.4748ZM32.3714 42.8807H15.6286V28.4746C15.6286 25.7989 17.5211 23.622 19.8473 23.622H28.1527C30.4789 23.622 32.3714 25.7989 32.3714 28.4746V42.8807ZM45.1875 41.2631C45.1875 42.155 44.5567 42.8807 43.7812 42.8807H35.1839V28.4746C35.1839 28.2949 35.177 28.1169 35.1668 27.9401C35.5188 27.8303 35.8884 27.7706 36.2702 27.7706H40.9688C43.295 27.7706 45.1875 29.9475 45.1875 32.6233V41.2631Z" fill="#2E9ADB"/>
<path d="M9.38087 10.7139C5.93566 10.7139 3.13281 13.5167 3.13281 16.9619C3.13272 20.4071 5.93566 23.21 9.38087 23.21C12.826 23.21 15.6289 20.4071 15.6289 16.9619C15.6289 13.5167 12.8261 10.7139 9.38087 10.7139ZM9.38078 20.3975C7.48637 20.3975 5.94522 18.8563 5.94522 16.9619C5.94522 15.0675 7.48637 13.5264 9.38078 13.5264C11.2752 13.5264 12.8163 15.0675 12.8163 16.9619C12.8163 18.8563 11.2752 20.3975 9.38078 20.3975Z" fill="#2E9ADB"/>
<path d="M24.0001 2.95361C19.3974 2.95361 15.6528 6.69818 15.6528 11.3009C15.6528 15.9037 19.3974 19.6482 24.0001 19.6482C28.6029 19.6482 32.3475 15.9037 32.3475 11.3009C32.3475 6.69827 28.6029 2.95361 24.0001 2.95361ZM24.0001 16.8357C20.9482 16.8357 18.4653 14.3529 18.4653 11.3009C18.4653 8.24908 20.9482 5.76611 24.0001 5.76611C27.0521 5.76611 29.535 8.24899 29.535 11.3009C29.535 14.3529 27.0521 16.8357 24.0001 16.8357Z" fill="#2E9ADB"/>
<path d="M38.6196 10.7139C35.1745 10.7139 32.3716 13.5167 32.3716 16.9619C32.3717 20.4071 35.1745 23.21 38.6196 23.21C42.0649 23.21 44.8677 20.4071 44.8677 16.9619C44.8677 13.5167 42.0649 10.7139 38.6196 10.7139ZM38.6196 20.3975C36.7253 20.3975 35.1841 18.8563 35.1841 16.9619C35.1842 15.0675 36.7253 13.5264 38.6196 13.5264C40.5141 13.5264 42.0552 15.0675 42.0552 16.9619C42.0552 18.8563 40.5141 20.3975 38.6196 20.3975Z" fill="#2E9ADB"/>
</svg>
