<svg width="65" height="65" viewBox="0 0 65 65" fill="none" xmlns="http://www.w3.org/2000/svg">
<path d="M55.4785 33.2255H49.1159C48.2499 33.2255 47.4115 33.3616 46.6136 33.6119C45.0397 30.0528 41.8262 27.6074 38.1234 27.6074H26.8766C23.1738 27.6074 19.9603 30.0528 18.3864 33.6119C17.5885 33.3616 16.7501 33.2255 15.8841 33.2255H9.52148C4.27134 33.2255 0 38.1387 0 44.1777V55.8774C0 59.5008 2.5628 62.4487 5.71289 62.4487H59.2871C62.4372 62.4487 65 59.5008 65 55.8774V44.1777C65 38.1387 60.7287 33.2255 55.4785 33.2255ZM17.3551 38.56V58.068H5.71289C4.66286 58.068 3.80859 57.0853 3.80859 55.8775V44.1779C3.80859 40.5545 6.3714 37.6065 9.52148 37.6065H15.8841C16.4011 37.6065 16.9016 37.6873 17.3782 37.8361C17.3645 38.0757 17.3551 38.3167 17.3551 38.56ZM43.8363 58.068H21.1637V38.5598C21.1637 34.9364 23.7265 31.9885 26.8766 31.9885H38.1234C41.2735 31.9885 43.8363 34.9364 43.8363 38.5598V58.068ZM61.1914 55.8775C61.1914 57.0853 60.3371 58.068 59.2871 58.068H47.6449V38.5598C47.6449 38.3164 47.6355 38.0754 47.6218 37.836C48.0984 37.6873 48.5989 37.6064 49.1159 37.6064H55.4785C58.6286 37.6064 61.1914 40.5543 61.1914 44.1777V55.8775Z" fill="#2E9ADB"/>
<path d="M12.7031 14.5088C8.0377 14.5088 4.24219 18.3043 4.24219 22.9697C4.24206 27.6351 8.0377 31.4306 12.7031 31.4306C17.3684 31.4306 21.164 27.6351 21.164 22.9697C21.164 18.3043 17.3685 14.5088 12.7031 14.5088ZM12.703 27.622C10.1376 27.622 8.05065 25.535 8.05065 22.9697C8.05065 20.4044 10.1376 18.3174 12.703 18.3174C15.2683 18.3174 17.3553 20.4044 17.3553 22.9697C17.3553 25.535 15.2683 27.622 12.703 27.622Z" fill="#2E9ADB"/>
<path d="M32.4999 4C26.267 4 21.1963 9.07076 21.1963 15.3037C21.1963 21.5365 26.267 26.6073 32.4999 26.6073C38.7328 26.6073 43.8036 21.5365 43.8036 15.3037C43.8036 9.07089 38.7328 4 32.4999 4ZM32.4999 22.7987C28.3671 22.7987 25.0049 19.4365 25.0049 15.3037C25.0049 11.1709 28.3671 7.80859 32.4999 7.80859C36.6328 7.80859 39.995 11.1708 39.995 15.3037C39.995 19.4365 36.6328 22.7987 32.4999 22.7987Z" fill="#2E9ADB"/>
<path d="M52.2973 14.5088C47.6321 14.5088 43.8364 18.3043 43.8364 22.9697C43.8366 27.6351 47.6321 31.4306 52.2973 31.4306C56.9627 31.4306 60.7583 27.6351 60.7583 22.9697C60.7583 18.3043 56.9627 14.5088 52.2973 14.5088ZM52.2973 27.622C49.7321 27.622 47.645 25.535 47.645 22.9697C47.6451 20.4044 49.7321 18.3174 52.2973 18.3174C54.8627 18.3174 56.9497 20.4044 56.9497 22.9697C56.9497 25.535 54.8627 27.622 52.2973 27.622Z" fill="#2E9ADB"/>
</svg>
