<svg width="65" height="65" viewBox="0 0 65 65" fill="none" xmlns="http://www.w3.org/2000/svg">
<path d="M63.0957 30.5957H58.8809V24.3411C58.8809 19.9096 55.2954 16.3177 50.8574 16.3177H48.6823V5.98368C48.6823 2.6843 45.9979 0 42.6985 0H38.6191H18.222H14.1426C10.8644 0 8.1589 2.64926 8.1589 5.98368V20.3971H5.98381C2.7008 20.3972 0 23.0505 0 26.3809C0 28.5433 1.15312 30.4412 2.8765 31.4926C2.34571 32.3857 2.03963 33.4275 2.03963 34.5398C2.03963 36.7006 3.19122 38.5974 4.91258 39.6494C4.3696 40.5625 4.07938 41.608 4.07938 42.6987C4.07938 44.9919 5.33597 46.8246 6.95437 47.813C6.42446 48.7056 6.11901 49.7463 6.11901 50.8576C6.11901 52.647 6.90968 54.2544 8.15864 55.3518V59.0163C8.1589 62.3157 10.8432 65 14.1426 65H42.6985C44.2979 65 45.8006 64.3772 46.9285 63.2478C48.0594 62.1182 48.6822 60.6154 48.6822 59.0162V56.8411H50.8574C54.6258 56.8411 57.7954 54.2299 58.6526 50.722H63.0957C64.1474 50.722 65 49.8693 65 48.8177V32.5C65 31.4483 64.1474 30.5957 63.0957 30.5957ZM20.1263 3.80859H36.7148V5.98368C36.7148 7.16904 35.7565 8.15877 34.5396 8.15877H22.3015C21.1136 8.15877 20.1263 7.19812 20.1263 5.98368V3.80859ZM3.80859 26.3809C3.80859 25.1954 4.76734 24.2058 5.98381 24.2058H8.1589V28.5561H5.98381C4.78448 28.5559 3.80859 27.5802 3.80859 26.3809ZM5.84822 34.5398C5.84822 33.3403 6.82411 32.3645 8.02344 32.3645H14.1426C15.3419 32.3645 16.3177 33.3403 16.3177 34.5398C16.3177 35.7391 15.3419 36.7148 14.1426 36.7148H8.02344C6.82411 36.7148 5.84822 35.7391 5.84822 34.5398ZM7.88811 42.6985C7.88811 41.5129 8.84673 40.5234 10.0632 40.5234H14.1426C15.3306 40.5234 16.3177 41.4841 16.3177 42.6985C16.3177 43.8866 15.3573 44.8736 14.1426 44.8736H10.0632C8.87517 44.8737 7.88811 43.9131 7.88811 42.6985ZM9.92773 50.8574C9.92773 49.6581 10.9035 48.6823 12.1028 48.6823C13.3021 48.6823 14.278 49.6581 14.278 50.8574C14.278 52.0567 13.3021 53.0325 12.1028 53.0325C10.9035 53.0325 9.92773 52.0567 9.92773 50.8574ZM44.8737 59.0163C44.8737 60.2017 43.9154 61.1914 42.6985 61.1914H14.1426C12.9433 61.1914 11.9674 60.2156 11.9674 59.0163V56.8378C12.0126 56.8388 12.0574 56.8412 12.1027 56.8412C15.4021 56.8412 18.0865 54.1569 18.0865 50.8576C18.0865 49.7465 17.7811 48.7058 17.2513 47.8132C18.4156 47.1023 20.1263 45.4275 20.1263 42.6987C20.1263 41.1682 19.5546 39.7271 18.516 38.6176C19.5138 37.5482 20.1263 36.1145 20.1263 34.5399C20.1263 31.2404 17.442 28.5561 14.1426 28.5561H11.9675V22.3015V5.98368C11.9675 4.7987 12.9255 3.80859 14.1426 3.80859H16.3177V5.98368C16.3177 9.2738 18.9778 11.9674 22.3015 11.9674H34.5396C37.8297 11.9674 40.5234 9.30744 40.5234 5.98368V3.80859H42.6985C43.8979 3.80859 44.8737 4.78436 44.8737 5.98368V16.3177H34.5398C33.4881 16.3177 32.6355 17.1703 32.6355 18.222C32.6355 24.8955 38.0649 30.3248 44.7384 30.3248H44.8737V59.0163ZM61.1914 46.9134H56.9766C55.9249 46.9134 55.0723 47.766 55.0723 48.8177C55.0723 51.1418 53.1814 53.0325 50.8574 53.0325H48.6823V28.4206C48.6823 27.3689 47.8297 26.5163 46.778 26.5163H44.7383C40.82 26.5163 37.5273 23.7849 36.6644 20.1264H50.8574C53.1871 20.1264 55.0723 22.0105 55.0723 24.3412V32.5C55.0723 33.5517 55.9249 34.4043 56.9766 34.4043H61.1914V46.9134Z" fill="#2E9ADB"/>
</svg>
