<svg width="65" height="65" viewBox="0 0 65 65" fill="none" xmlns="http://www.w3.org/2000/svg">
<g clip-path="url(#clip0_84_1615)">
<path d="M64.4384 14.0543L60.6571 10.2847L64.4944 6.11952C65.6176 4.90026 64.748 2.92487 63.094 2.92487H48.2799V1.9043C48.2799 0.852617 47.4272 0 46.3757 0C45.324 0 44.4715 0.852617 44.4715 1.9043V24.1211H37.5997C36.548 24.1211 35.6955 24.9737 35.6955 26.0254V39.0099H20.0475C18.9958 39.0099 18.1433 39.8625 18.1433 40.9142V49.6741H2.49548C1.4438 49.6741 0.591309 50.5267 0.591309 51.5784V63.0957C0.591309 64.1474 1.44393 65 2.49548 65H55.475C56.5267 65 57.3792 64.1474 57.3792 63.0957V26.0254C57.3792 24.9737 56.5266 24.1211 55.475 24.1211H48.28V17.3073H63.0941C64.7869 17.3073 65.6388 15.251 64.4384 14.0543V14.0543ZM4.39965 53.4827H18.1433V61.1914H4.39965V53.4827ZM21.9517 42.8185H35.6954V61.1914H21.9517C21.9517 60.7839 21.9517 43.1991 21.9517 42.8185V42.8185ZM53.5708 61.1914H39.5038C39.5038 60.3825 39.5038 28.276 39.5038 27.9297H53.5708V61.1914ZM56.6717 11.6893L58.4865 13.4987H48.2797V6.73347H58.7502L56.6156 9.05036C55.9228 9.80243 55.9476 10.9675 56.6717 11.6893V11.6893Z" fill="#2E9ADB"/>
<path d="M2.64674 39.9367C9.34745 37.1025 15.3744 33.0359 20.5601 27.8499C24.7866 23.6233 28.2691 18.839 30.9462 13.5882L32.3156 16.3496C32.7827 17.2919 33.9251 17.6768 34.8676 17.2096C35.8098 16.7423 36.1949 15.5997 35.7276 14.6574L32.5988 8.34787C32.2167 7.57701 31.3557 7.15083 30.5006 7.33035L23.7277 8.75578C22.6985 8.97236 22.0398 9.98227 22.2564 11.0115C22.4452 11.9084 23.2364 12.524 24.1179 12.524C24.383 12.524 24.2123 12.546 27.5613 11.8411C25.0641 16.7428 21.8142 21.2097 17.8674 25.1568C13.0302 29.9943 7.41027 33.7867 1.16342 36.4289C0.194766 36.8387 -0.258329 37.9559 0.151475 38.9245C0.561153 39.8941 1.67898 40.3462 2.64674 39.9367Z" fill="#2E9ADB"/>
</g>
<defs>
<clipPath id="clip0_84_1615">
<rect width="65" height="65" fill="white"/>
</clipPath>
</defs>
</svg>
