<svg width="48" height="48" viewBox="0 0 48 48" fill="none" xmlns="http://www.w3.org/2000/svg">
<path d="M47.5852 10.3786L44.7928 7.59488L47.6265 4.51903C48.4559 3.61866 47.8137 2.15991 46.5924 2.15991H35.6527V1.40625C35.6527 0.629625 35.0231 0 34.2465 0C33.4699 0 32.8404 0.629625 32.8404 1.40625V17.8125H27.7658C26.9891 17.8125 26.3596 18.4421 26.3596 19.2188V28.8073H14.8042C14.0276 28.8073 13.398 29.4369 13.398 30.2136V36.6824H1.84268C1.06605 36.6824 0.436523 37.312 0.436523 38.0887V46.5938C0.436523 47.3704 1.06615 48 1.84268 48H40.9661C41.7427 48 42.3722 47.3704 42.3722 46.5938V19.2188C42.3722 18.4421 41.7426 17.8125 40.9661 17.8125H35.6528V12.7808H46.5925C47.8425 12.7808 48.4716 11.2623 47.5852 10.3786ZM3.24884 39.4949H13.398V45.1875H3.24884V39.4949ZM16.2103 31.6198H26.3595V45.1875H16.2103C16.2103 44.8866 16.2103 31.9009 16.2103 31.6198ZM39.5598 45.1875H29.1719C29.1719 44.5901 29.1719 20.8808 29.1719 20.625H39.5598V45.1875ZM41.8497 8.63212L43.1899 9.96825H35.6526V4.97241H43.3846L41.8083 6.68334C41.2967 7.23872 41.315 8.09906 41.8497 8.63212Z" fill="#2E9ADB"/>
<path d="M1.95464 29.492C6.90286 27.399 11.3535 24.396 15.183 20.5663C18.3041 17.4451 20.8757 13.9121 22.8527 10.0346L23.8639 12.0738C24.2089 12.7696 25.0525 13.0539 25.7485 12.7089C26.4443 12.3638 26.7286 11.52 26.3835 10.8242L24.0731 6.16483C23.7909 5.59558 23.1551 5.28086 22.5237 5.41343L17.5221 6.46605C16.7621 6.62599 16.2757 7.37177 16.4356 8.1318C16.575 8.79414 17.1593 9.24874 17.8103 9.24874C18.006 9.24874 17.88 9.26496 20.3531 8.74446C18.509 12.3641 16.1091 15.6628 13.1945 18.5776C9.62245 22.1499 5.47233 24.9505 0.859268 26.9016C0.143955 27.2042 -0.190639 28.0292 0.111986 28.7445C0.414518 29.4605 1.23999 29.7943 1.95464 29.492Z" fill="#2E9ADB"/>
</svg>
