<svg width="65" height="65" viewBox="0 0 65 65" fill="none" xmlns="http://www.w3.org/2000/svg">
<path d="M64.4384 14.0543L60.6572 10.2847L64.4944 6.11952C65.6176 4.90026 64.748 2.92487 63.094 2.92487H48.2799V1.9043C48.2799 0.852617 47.4272 0 46.3757 0C45.324 0 44.4715 0.852617 44.4715 1.9043V24.1211H37.5997C36.548 24.1211 35.6955 24.9737 35.6955 26.0254V39.0099H20.0475C18.9958 39.0099 18.1433 39.8625 18.1433 40.9142V49.6741H2.49548C1.4438 49.6741 0.591309 50.5267 0.591309 51.5784V63.0957C0.591309 64.1474 1.44393 65 2.49548 65H55.475C56.5267 65 57.3792 64.1474 57.3792 63.0957V26.0254C57.3792 24.9737 56.5266 24.1211 55.475 24.1211H48.28V17.3073H63.0941C64.7869 17.3073 65.6388 15.251 64.4384 14.0543ZM4.39965 53.4827H18.1433V61.1914H4.39965V53.4827ZM21.9517 42.8185H35.6954V61.1914H21.9517C21.9517 60.7839 21.9517 43.1991 21.9517 42.8185ZM53.5708 61.1914H39.5038C39.5038 60.3825 39.5038 28.276 39.5038 27.9297H53.5708V61.1914ZM56.6717 11.6893L58.4865 13.4987H48.2797V6.73347H58.7502L56.6156 9.05036C55.9228 9.80243 55.9476 10.9675 56.6717 11.6893Z" fill="#2E9ADB"/>
</svg>
