<svg width="10" height="20" viewBox="0 0 10 20" fill="none" xmlns="http://www.w3.org/2000/svg">
<path d="M5.55301 19.7709C5.55324 19.7706 5.55352 19.7704 5.55375 19.7702L9.61625 15.688C9.92059 15.3821 9.91946 14.8875 9.6136 14.5831C9.30778 14.2787 8.81313 14.2799 8.50875 14.5857L5.78125 17.3265L5.78125 0.78125C5.78125 0.349765 5.43149 -1.92866e-07 5 -2.11727e-07C4.56852 -2.30588e-07 4.21875 0.349765 4.21875 0.78125L4.21875 17.3264L1.49125 14.5857C1.18688 14.2799 0.692228 14.2788 0.386407 14.5831C0.0805095 14.8875 0.0794547 15.3822 0.383751 15.688L4.44625 19.7702C4.44649 19.7704 4.44676 19.7706 4.44699 19.7709C4.75238 20.0769 5.24863 20.0759 5.55301 19.7709Z" fill="white"/>
</svg>
