<svg width="48" height="48" viewBox="0 0 48 48" fill="none" xmlns="http://www.w3.org/2000/svg">
<path d="M24.1215 0.000374999C24.1199 0.000374999 24.1183 0.000374999 24.1166 0.000281249C24.1089 0.000281249 24.1013 0 24.0937 0C24.0926 0 24.0915 0 24.0903 0C24.0873 0 24.0842 9.37498e-05 24.0812 9.37498e-05C10.8549 0.00684374 0 10.7111 0 23.9062C0 27.1327 0.642655 30.2748 1.91025 33.2454C4.36434 38.9967 8.99089 43.6302 14.7544 46.0896C17.7246 47.357 20.8664 47.9997 24.0924 47.9998C24.0932 47.9998 24.0941 48 24.0949 48C24.0971 48 24.0993 47.9998 24.1015 47.9997C37.3719 47.9955 47.9999 37.0617 47.9999 23.9062C47.9999 10.7132 37.3351 0.0152812 24.1215 0.000374999ZM19.4359 3.32277C17.0377 5.5964 15.0783 8.25927 13.6027 11.25H7.07952C10.0712 7.30874 14.4222 4.43671 19.4359 3.32277ZM5.2768 14.0437H12.4009C11.4172 16.7388 10.8356 19.6112 10.6855 22.5H2.86096C3.06318 19.4692 3.91396 16.5931 5.2768 14.0437ZM5.32977 33.9374C3.93384 31.3368 3.06356 28.4144 2.86021 25.3125H10.6759C10.8102 28.2652 11.3961 31.1841 12.4011 33.9374H5.32977ZM7.13708 36.7499H13.6027C15.0754 39.7351 17.0322 42.397 19.4297 44.6712C14.4503 43.5534 10.1256 40.6858 7.13708 36.7499ZM13.4926 25.3125H22.6874V33.9374H15.4337C14.3107 31.232 13.6434 28.32 13.4926 25.3125ZM22.6876 43.7919C20.2966 41.8012 18.3141 39.4105 16.8065 36.7499H22.6875V43.7919H22.6876ZM22.6876 22.5H13.502C13.6707 19.5587 14.3342 16.7117 15.4338 14.0625H22.6876V22.5ZM22.6876 11.25H16.8067C18.3142 8.58936 20.2966 6.19874 22.6876 4.20787V11.25ZM42.7448 14.0625C44.0957 16.6118 44.9389 19.4692 45.1394 22.5H37.5018C37.3517 19.6112 36.7701 16.7575 35.7864 14.0625H42.7448ZM40.9581 11.25H34.5848C33.1132 8.26714 31.1586 5.60727 28.764 3.3344C33.711 4.45696 38.0033 7.3228 40.9581 11.25ZM25.5 4.20843C27.8909 6.1993 29.8741 8.58936 31.3816 11.25H25.5V4.20843ZM25.5 14.0625H32.7554C33.8549 16.7115 34.5169 19.5589 34.6856 22.5H25.5V14.0625ZM34.6957 25.2937C34.5449 28.3011 33.8783 31.2322 32.7554 33.9374H25.5V25.2937H34.6957ZM25.5 43.7915V36.7312H31.3816C29.8741 39.3918 27.8909 41.8005 25.5 43.7915ZM28.7704 44.6594C31.1602 42.3897 33.1135 39.7135 34.5847 36.7312H40.9009C37.9496 40.6527 33.6834 43.533 28.7704 44.6594ZM35.7865 33.9374C36.7915 31.1841 37.3774 28.2464 37.5116 25.2937H45.1403C44.9387 28.3956 44.0761 31.3368 42.6924 33.9374H35.7865Z" fill="#2E9ADB"/>
</svg>
