<svg width="48" height="48" viewBox="0 0 48 48" fill="none" xmlns="http://www.w3.org/2000/svg">
<path d="M46.5938 22.5938H43.4812V17.975C43.4812 14.7024 40.8336 12.05 37.5563 12.05H35.95V4.41872C35.95 1.98225 33.9677 0 31.5312 0H28.5188H13.4562H10.4438C8.02294 0 6.02503 1.95638 6.02503 4.41872V15.0624H4.41881C1.99444 15.0625 0 17.0219 0 19.4813C0 21.0781 0.851531 22.4797 2.12419 23.2561C1.73222 23.9156 1.50619 24.6849 1.50619 25.5063C1.50619 27.102 2.35659 28.5027 3.62775 29.2795C3.22678 29.9539 3.01247 30.7259 3.01247 31.5313C3.01247 33.2248 3.94041 34.5782 5.13553 35.308C4.74422 35.9672 4.51866 36.7358 4.51866 37.5563C4.51866 38.8778 5.10253 40.0648 6.02484 40.8752V43.5813C6.02503 46.0177 8.00728 48 10.4438 48H31.5312C32.7123 48 33.822 47.5401 34.6549 46.7061C35.49 45.8719 35.9499 44.7622 35.9499 43.5812V41.975H37.5563C40.339 41.975 42.6797 40.0467 43.3127 37.4562H46.5938C47.3704 37.4562 48 36.8266 48 36.05V24C48 23.2234 47.3704 22.5938 46.5938 22.5938ZM14.8625 2.8125H27.1125V4.41872C27.1125 5.29406 26.4048 6.02494 25.5062 6.02494H16.4688C15.5916 6.02494 14.8625 5.31553 14.8625 4.41872V2.8125ZM2.8125 19.4813C2.8125 18.6058 3.5205 17.875 4.41881 17.875H6.02503V21.0876H4.41881C3.53316 21.0875 2.8125 20.3669 2.8125 19.4813ZM4.31869 25.5063C4.31869 24.6205 5.03934 23.9 5.925 23.9H10.4438C11.3294 23.9 12.05 24.6205 12.05 25.5063C12.05 26.3919 11.3294 27.1125 10.4438 27.1125H5.925C5.03934 27.1125 4.31869 26.3919 4.31869 25.5063ZM5.82506 31.5312C5.82506 30.6557 6.53297 29.925 7.43128 29.925H10.4438C11.3211 29.925 12.05 30.6344 12.05 31.5312C12.05 32.4085 11.3407 33.1374 10.4438 33.1374H7.43128C6.55397 33.1375 5.82506 32.4281 5.82506 31.5312ZM7.33125 37.5563C7.33125 36.6706 8.05181 35.95 8.93747 35.95C9.82312 35.95 10.5438 36.6706 10.5438 37.5563C10.5438 38.4419 9.82312 39.1625 8.93747 39.1625C8.05181 39.1625 7.33125 38.4419 7.33125 37.5563ZM33.1375 43.5813C33.1375 44.4566 32.4298 45.1875 31.5312 45.1875H10.4438C9.55809 45.1875 8.83744 44.4669 8.83744 43.5813V41.9725C8.87081 41.9733 8.90391 41.9751 8.93738 41.9751C11.3738 41.9751 13.3562 39.9928 13.3562 37.5563C13.3562 36.7358 13.1306 35.9674 12.7394 35.3082C13.5992 34.7832 14.8625 33.5465 14.8625 31.5313C14.8625 30.4012 14.4403 29.3369 13.6733 28.5176C14.4102 27.7279 14.8625 26.6692 14.8625 25.5064C14.8625 23.0698 12.8802 21.0876 10.4438 21.0876H8.83753V16.4688V4.41872C8.83753 3.54366 9.54497 2.8125 10.4438 2.8125H12.05V4.41872C12.05 6.84834 14.0144 8.83744 16.4688 8.83744H25.5062C27.9358 8.83744 29.925 6.87319 29.925 4.41872V2.8125H31.5312C32.4169 2.8125 33.1375 3.53306 33.1375 4.41872V12.05H25.5063C24.7297 12.05 24.1 12.6796 24.1 13.4562C24.1 18.3844 28.1094 22.3937 33.0376 22.3937H33.1375V43.5813ZM45.1875 34.6437H42.075C41.2984 34.6437 40.6687 35.2733 40.6687 36.05C40.6687 37.7663 39.2724 39.1625 37.5563 39.1625H35.95V20.9875C35.95 20.2109 35.3204 19.5813 34.5438 19.5813H33.0375C30.144 19.5813 27.7125 17.5642 27.0753 14.8626H37.5563C39.2767 14.8626 40.6687 16.2539 40.6687 17.9751V24C40.6687 24.7766 41.2984 25.4062 42.075 25.4062H45.1875V34.6437Z" fill="#2E9ADB"/>
</svg>
